<?xml version="1.0" encoding="utf-8"?>
<svg aria-hidden="true" data-prefix="fas" data-icon="user" class="svg-inline--fa fa-user fa-w-14" viewBox="0 0 448 512" xmlns="http://www.w3.org/2000/svg" xmlns:bx="https://boxy-svg.com">
  <defs>
    <bx:guide x="66.914" y="100.076" angle="90"/>
    <bx:guide x="60.946" y="172.695" angle="90"/>
    <bx:guide x="56.966" y="250.288" angle="90"/>
    <bx:guide x="50.998" y="324.4" angle="90"/>
    <bx:guide x="88.302" y="400.004" angle="90"/>
    <bx:guide x="63.93" y="282.122" angle="0"/>
  </defs>
  <g style="transform-origin: 241.153px 303.047px;" transform="matrix(1.371522, 1.08128, -1.020764, 1.294761, -29.861895, 10.599692)">
    <title>telephone</title>
    <g transform="matrix(-0.805795, -0.592194, -0.592194, 0.805795, 170.365036, 57.255535)" style="transform-origin: 135.774px 258.45px;">
      <title>telephone-right</title>
      <path style="fill: rgb(70, 70, 70); transform-box: fill-box; transform-origin: 50% 50%;" d="M 144.995 262.896 L 146.75166666666667 261.76683333333335 C 148.50833333333333 260.6376666666667 152.02166666666668 258.3793333333333 155.47233333333335 255.24249999999998 C 158.923 252.10566666666668 162.311 248.09033333333332 163.6285 243.63599999999997 C 164.946 239.18166666666664 164.193 234.28833333333333 156.22533333333334 227.15183333333334 C 148.25766666666667 220.01533333333336 133.07533333333333 210.63566666666668 125.48416666666667 205.94583333333335 L 117.893 201.256" transform="matrix(0.999974, 0.007241, -0.007241, 0.999974, 0, 0)" bx:d="M 144.995 262.896 U 155.535 256.121 U 165.699 244.075 U 163.44 229.395 U 117.893 201.256 1@aaaa4e53"/>
      <path style="fill: rgb(70, 70, 70); transform-box: fill-box; transform-origin: 50% 50%;" d="M 95.31 168.269 L 97.06666666666666 169.39816666666667 C 98.82333333333334 170.52733333333333 102.33666666666666 172.78566666666666 105.78733333333334 175.9225 C 109.238 179.05933333333334 112.62599999999999 183.07466666666667 113.94349999999999 187.529 C 115.26100000000001 191.98333333333335 114.508 196.87666666666667 106.54033333333332 204.0131666666667 C 98.57266666666665 211.1496666666667 83.39033333333333 220.5293333333333 75.79916666666666 225.21916666666667 L 68.208 229.909" transform="matrix(-0.40302, -0.915191, 0.915191, -0.40302, -0.000009, 0.000002)" bx:d="M 95.31 168.269 U 105.85 175.044 U 116.014 187.09 U 113.755 201.77 U 68.208 229.909 1@a2e49944"/>
      <path style="fill: rgb(70, 70, 70); transform-box: fill-box; transform-origin: 50% 50%;" d="M 148.429 261.23 L 145.698 262.869 C 142.967 264.507 137.504 267.785 134.687 269.496 C 131.87 271.207 131.698 271.351 134.524 274.03 C 137.35 276.708 143.175 281.92 157.22 288.465 C 171.266 295.009 193.532 302.887 204.808 306.892 C 216.083 310.897 216.368 311.03 214.184 316.643 C 212.001 322.255 207.35 333.348 204.683 339.764 C 202.016 346.179 201.333 347.919 200.53 348.664 C 199.727 349.41 197.758 365.756 185.678 361.525 C 173.599 357.295 150.531 346.762 132.505 339.155 C 114.478 331.547 103.871 318.564 93.273 308.572 C 82.674 298.579 72.96 277.303 68.669 261.027 C 64.377 244.751 64.174 225.181 64.048 215.297 C 64.02 213.087 63.996 211.361 63.975 210.012 C 63.942 209.775 63.914 209.534 63.884 209.283 C 63.842 208.92 63.813 208.547 63.796 208.173 C 63.79 208.155 63.784 208.138 63.779 208.12 C 63.744 208 63.718 207.848 63.708 207.713 C 63.681 207.605 63.676 207.493 63.658 207.356 C 63.633 207.16 63.597 206.939 63.588 206.664 C 63.575 206.318 63.573 205.732 63.614 205.419 C 63.644 205.196 63.675 205.062 63.75 204.906 C 63.825 204.751 63.951 204.587 64.062 204.485 C 64.067 204.48 64.073 204.475 64.078 204.471 C 64.143 204.162 64.218 203.852 64.306 203.539 C 64.574 202.581 64.936 201.594 65.425 200.656 C 65.934 199.679 66.633 198.642 67.331 197.799 C 67.994 197.001 68.763 196.292 69.489 195.7 C 70.155 195.157 70.753 194.754 71.505 194.345 C 72.318 193.903 73.154 193.476 74.224 193.171 C 75.498 192.808 77.306 192.499 78.744 192.449 C 80.088 192.403 81.208 192.54 82.597 192.81 C 84.18 193.118 86.215 193.667 87.754 194.318 C 87.923 194.389 88.09 194.463 88.255 194.539 C 95.826 195.986 109.404 199.118 115.173 200.991 C 119.483 202.389 121.618 203.42 124.166 205.024 C 126.468 206.473 128.483 208.269 129.97 210.007 C 131.28 211.538 131.976 212.768 132.857 214.779 C 133.976 217.331 134.351 221.719 135.819 224.465 C 137.174 226.999 139.252 229.056 141.111 230.835 C 142.82 232.471 145.382 233.832 146.478 234.868 C 147.152 235.505 147.202 235.905 147.714 236.429 C 148.303 237.032 149.138 237.306 149.878 238.253 C 150.942 239.615 152.596 242.263 153.187 244.442 C 153.769 246.593 154.007 248.907 153.435 251.234 C 152.786 253.872 150.92 257.422 148.961 259.394 C 148.512 259.845 148.025 260.253 147.511 260.62 L 148.429 261.23 Z" transform="matrix(0.999479, -0.03227, 0.03227, 0.999479, 0.213502, -0.003447)"/>
    </g>
    <g transform="matrix(1.013205, -0.063724, 0.025816, 0.985344, 9.830044, 10.648181)" style="transform-origin: 135.774px 258.45px;">
      <title>telephone-left</title>
      <path style="fill: rgb(70, 70, 70); transform-box: fill-box; transform-origin: 50% 50%;" d="M 144.995 262.896 L 146.75166666666667 261.76683333333335 C 148.50833333333333 260.6376666666667 152.02166666666668 258.3793333333333 155.47233333333335 255.24249999999998 C 158.923 252.10566666666668 162.311 248.09033333333332 163.6285 243.63599999999997 C 164.946 239.18166666666664 164.193 234.28833333333333 156.22533333333334 227.15183333333334 C 148.25766666666667 220.01533333333336 133.07533333333333 210.63566666666668 125.48416666666667 205.94583333333335 L 117.893 201.256" transform="matrix(0.999974, 0.007241, -0.007241, 0.999974, 0, 0)" bx:d="M 144.995 262.896 U 155.535 256.121 U 165.699 244.075 U 163.44 229.395 U 117.893 201.256 1@aaaa4e53"/>
      <path style="fill: rgb(70, 70, 70); transform-box: fill-box; transform-origin: 50% 50%;" d="M 95.31 168.269 L 97.06666666666666 169.39816666666667 C 98.82333333333334 170.52733333333333 102.33666666666666 172.78566666666666 105.78733333333334 175.9225 C 109.238 179.05933333333334 112.62599999999999 183.07466666666667 113.94349999999999 187.529 C 115.26100000000001 191.98333333333335 114.508 196.87666666666667 106.54033333333332 204.0131666666667 C 98.57266666666665 211.1496666666667 83.39033333333333 220.5293333333333 75.79916666666666 225.21916666666667 L 68.208 229.909" transform="matrix(-0.40302, -0.915191, 0.915191, -0.40302, -0.000009, 0.000002)" bx:d="M 95.31 168.269 U 105.85 175.044 U 116.014 187.09 U 113.755 201.77 U 68.208 229.909 1@a2e49944"/>
      <path style="fill: rgb(70, 70, 70); transform-box: fill-box; transform-origin: 50% 50%;" d="M 148.429 261.23 L 145.698 262.869 C 142.967 264.507 137.504 267.785 134.687 269.496 C 131.87 271.207 131.698 271.351 134.524 274.03 C 137.35 276.708 143.175 281.92 157.22 288.465 C 171.266 295.009 193.532 302.887 204.808 306.892 C 216.083 310.897 216.368 311.03 214.184 316.643 C 212.001 322.255 207.35 333.348 204.683 339.764 C 202.016 346.179 201.333 347.919 200.53 348.664 C 199.727 349.41 197.758 365.756 185.678 361.525 C 173.599 357.295 150.531 346.762 132.505 339.155 C 114.478 331.547 103.871 318.564 93.273 308.572 C 82.674 298.579 72.96 277.303 68.669 261.027 C 64.377 244.751 64.174 225.181 64.048 215.297 C 64.02 213.087 63.996 211.361 63.975 210.012 C 63.942 209.775 63.914 209.534 63.884 209.283 C 63.842 208.92 63.813 208.547 63.796 208.173 C 63.79 208.155 63.784 208.138 63.779 208.12 C 63.744 208 63.718 207.848 63.708 207.713 C 63.681 207.605 63.676 207.493 63.658 207.356 C 63.633 207.16 63.597 206.939 63.588 206.664 C 63.575 206.318 63.573 205.732 63.614 205.419 C 63.644 205.196 63.675 205.062 63.75 204.906 C 63.825 204.751 63.951 204.587 64.062 204.485 C 64.067 204.48 64.073 204.475 64.078 204.471 C 64.143 204.162 64.218 203.852 64.306 203.539 C 64.574 202.581 64.936 201.594 65.425 200.656 C 65.934 199.679 66.633 198.642 67.331 197.799 C 67.994 197.001 68.763 196.292 69.489 195.7 C 70.155 195.157 70.753 194.754 71.505 194.345 C 72.318 193.903 73.154 193.476 74.224 193.171 C 75.498 192.808 77.306 192.499 78.744 192.449 C 80.088 192.403 81.208 192.54 82.597 192.81 C 84.18 193.118 86.215 193.667 87.754 194.318 C 87.923 194.389 88.09 194.463 88.255 194.539 C 95.826 195.986 109.404 199.118 115.173 200.991 C 119.483 202.389 121.618 203.42 124.166 205.024 C 126.468 206.473 128.483 208.269 129.97 210.007 C 131.28 211.538 131.976 212.768 132.857 214.779 C 133.976 217.331 134.351 221.719 135.819 224.465 C 137.174 226.999 139.252 229.056 141.111 230.835 C 142.82 232.471 145.382 233.832 146.478 234.868 C 147.152 235.505 147.202 235.905 147.714 236.429 C 148.303 237.032 149.138 237.306 149.878 238.253 C 150.942 239.615 152.596 242.263 153.187 244.442 C 153.769 246.593 154.007 248.907 153.435 251.234 C 152.786 253.872 150.92 257.422 148.961 259.394 C 148.512 259.845 148.025 260.253 147.511 260.62 L 148.429 261.23 Z" transform="matrix(0.999479, -0.03227, 0.03227, 0.999479, 0.213502, -0.003447)"/>
    </g>
  </g>
</svg>